<svg width="147" height="24" viewBox="0 0 147 24" fill="none" xmlns="http://www.w3.org/2000/svg">
<path d="M11.7277 23.5886V21.3086C11.6246 21.5371 11.3609 21.8686 10.9367 22.3029C10.524 22.7371 9.97374 23.1314 9.2859 23.4857C8.59805 23.8286 7.79557 24 6.87844 24C5.50275 24 4.29903 23.6686 3.26726 23.0057C2.23549 22.3314 1.43301 21.4343 0.859805 20.3143C0.286602 19.1829 0 17.9314 0 16.56C0 15.1886 0.286602 13.9429 0.859805 12.8229C1.43301 11.6914 2.23549 10.7886 3.26726 10.1143C4.29903 9.44 5.50275 9.10286 6.87844 9.10286C7.76118 9.10286 8.535 9.24571 9.19992 9.53143C9.86483 9.80571 10.4036 10.1371 10.8164 10.5257C11.2291 10.9029 11.5157 11.2514 11.6762 11.5714V9.51429H16.8694V23.5886H11.7277ZM5.12444 16.56C5.12444 17.2 5.27347 17.7771 5.57154 18.2914C5.8696 18.7943 6.26511 19.1886 6.75807 19.4743C7.26249 19.76 7.8185 19.9029 8.42609 19.9029C9.05662 19.9029 9.61262 19.76 10.0941 19.4743C10.5756 19.1886 10.9539 18.7943 11.2291 18.2914C11.5157 17.7771 11.659 17.2 11.659 16.56C11.659 15.92 11.5157 15.3486 11.2291 14.8457C10.9539 14.3314 10.5756 13.9314 10.0941 13.6457C9.61262 13.3486 9.05662 13.2 8.42609 13.2C7.8185 13.2 7.26249 13.3486 6.75807 13.6457C6.26511 13.9314 5.8696 14.3314 5.57154 14.8457C5.27347 15.3486 5.12444 15.92 5.12444 16.56Z" fill="black"/>
<path d="M28.0796 16.0286L34.0811 23.5886H28.286L24.9499 19.2514L21.6139 23.5886H16.2143L22.1986 16.44L16.8162 9.51429H22.6629L25.2767 13.1314L28.0108 9.51429H33.3072L28.0796 16.0286Z" fill="black"/>
<path d="M32.1876 9.51429H34.5951V3.73714H39.7711V9.51429H42.9352V13.8H39.7711V17.7257C39.7711 18.3086 39.8571 18.7829 40.029 19.1486C40.201 19.5029 40.5163 19.68 40.9748 19.68C41.2844 19.68 41.548 19.6114 41.7658 19.4743C41.9837 19.3371 42.1155 19.2457 42.1614 19.2L43.9497 22.9029C43.8695 22.9714 43.6173 23.0971 43.1931 23.28C42.7804 23.4629 42.2531 23.6286 41.6111 23.7771C40.9691 23.9257 40.2526 24 39.4616 24C38.0515 24 36.8879 23.6057 35.9708 22.8171C35.0536 22.0171 34.5951 20.7886 34.5951 19.1314V13.8H32.1876V9.51429Z" fill="black"/>
<path d="M43.306 23.5886V9.51429H48.5336V23.5886H43.306ZM45.9886 6.61714C45.1632 6.61714 44.4638 6.33143 43.8906 5.76C43.3174 5.17714 43.0308 4.48571 43.0308 3.68571C43.0308 2.88571 43.3174 2.19429 43.8906 1.61143C44.4753 1.01714 45.1746 0.719999 45.9886 0.719999C46.5274 0.719999 47.0203 0.857142 47.4674 1.13143C47.9145 1.39429 48.2756 1.74857 48.5508 2.19429C48.8259 2.64 48.9635 3.13714 48.9635 3.68571C48.9635 4.48571 48.6712 5.17714 48.0865 5.76C47.5018 6.33143 46.8025 6.61714 45.9886 6.61714Z" fill="black"/>
<path d="M56.5717 24C55.024 24 53.6484 23.6857 52.4446 23.0571C51.2524 22.4171 50.3123 21.5429 49.6245 20.4343C48.9481 19.3143 48.6099 18.0343 48.6099 16.5943C48.6099 15.1543 48.9481 13.8743 49.6245 12.7543C50.3123 11.6229 51.2524 10.7314 52.4446 10.08C53.6484 9.42857 55.024 9.10286 56.5717 9.10286C58.1193 9.10286 59.4836 9.42857 60.6644 10.08C61.8452 10.7314 62.768 11.6229 63.4329 12.7543C64.0979 13.8743 64.4303 15.1543 64.4303 16.5943C64.4303 18.0343 64.0979 19.3143 63.4329 20.4343C62.768 21.5429 61.8452 22.4171 60.6644 23.0571C59.4836 23.6857 58.1193 24 56.5717 24ZM56.5717 19.7143C57.1678 19.7143 57.6837 19.5829 58.1193 19.32C58.555 19.0571 58.8932 18.6857 59.1339 18.2057C59.3747 17.7257 59.495 17.1829 59.495 16.5771C59.495 15.96 59.3747 15.4114 59.1339 14.9314C58.8932 14.4514 58.555 14.0743 58.1193 13.8C57.6837 13.5257 57.1678 13.3886 56.5717 13.3886C55.9756 13.3886 55.4539 13.5257 55.0068 13.8C54.5712 14.0743 54.2273 14.4514 53.9751 14.9314C53.7343 15.4114 53.614 15.96 53.614 16.5771C53.614 17.1829 53.7343 17.7257 53.9751 18.2057C54.2273 18.6857 54.5712 19.0571 55.0068 19.32C55.4539 19.5829 55.9756 19.7143 56.5717 19.7143Z" fill="black"/>
<path d="M74.1152 9.10286C75.1011 9.10286 76.0641 9.30286 77.0042 9.70286C77.9442 10.1029 78.718 10.7371 79.3256 11.6057C79.9332 12.4629 80.237 13.5943 80.237 15V23.5886H74.9922V15.8571C74.9922 14.8514 74.7515 14.0971 74.27 13.5943C73.7885 13.08 73.158 12.8229 72.3784 12.8229C71.8625 12.8229 71.3753 12.96 70.9167 13.2343C70.4696 13.4971 70.1028 13.8743 69.8162 14.3657C69.5411 14.8457 69.4035 15.4 69.4035 16.0286V23.5886H64.1759V9.51429H69.4035V11.5886C69.5411 11.2114 69.8277 10.8343 70.2633 10.4571C70.7104 10.0686 71.2664 9.74857 71.9313 9.49714C72.6077 9.23429 73.3357 9.10286 74.1152 9.10286Z" fill="black"/>
<path d="M91.4774 23.5886V21.3086C91.3742 21.5371 91.1105 21.8686 90.6863 22.3029C90.2736 22.7371 89.7234 23.1314 89.0355 23.4857C88.3477 23.8286 87.5452 24 86.6281 24C85.2524 24 84.0487 23.6686 83.0169 23.0057C81.9851 22.3314 81.1826 21.4343 80.6094 20.3143C80.0362 19.1829 79.7496 17.9314 79.7496 16.56C79.7496 15.1886 80.0362 13.9429 80.6094 12.8229C81.1826 11.6914 81.9851 10.7886 83.0169 10.1143C84.0487 9.44 85.2524 9.10286 86.6281 9.10286C87.5108 9.10286 88.2846 9.24571 88.9495 9.53143C89.6145 9.80571 90.1533 10.1371 90.566 10.5257C90.9787 10.9029 91.2653 11.2514 91.4258 11.5714V9.51429H96.619V23.5886H91.4774ZM84.8741 16.56C84.8741 17.2 85.0231 17.7771 85.3212 18.2914C85.6192 18.7943 86.0147 19.1886 86.5077 19.4743C87.0121 19.76 87.5681 19.9029 88.1757 19.9029C88.8062 19.9029 89.3622 19.76 89.8437 19.4743C90.3252 19.1886 90.7035 18.7943 90.9787 18.2914C91.2653 17.7771 91.4086 17.2 91.4086 16.56C91.4086 15.92 91.2653 15.3486 90.9787 14.8457C90.7035 14.3314 90.3252 13.9314 89.8437 13.6457C89.3622 13.3486 88.8062 13.2 88.1757 13.2C87.5681 13.2 87.0121 13.3486 86.5077 13.6457C86.0147 13.9314 85.6192 14.3314 85.3212 14.8457C85.0231 15.3486 84.8741 15.92 84.8741 16.56Z" fill="black"/>
<path d="M97.0989 23.5886V0H102.327V11.5714C102.43 11.2514 102.693 10.9029 103.118 10.5257C103.553 10.1371 104.121 9.80571 104.82 9.53143C105.531 9.24571 106.333 9.10286 107.227 9.10286C108.603 9.10286 109.795 9.44 110.804 10.1143C111.813 10.7886 112.593 11.6914 113.143 12.8229C113.693 13.9429 113.968 15.1886 113.968 16.56C113.968 17.9314 113.693 19.1829 113.143 20.3143C112.593 21.4343 111.813 22.3314 110.804 23.0057C109.795 23.6686 108.603 24 107.227 24C106.471 24 105.754 23.8629 105.078 23.5886C104.413 23.3257 103.834 22.9886 103.341 22.5771C102.86 22.1543 102.504 21.7314 102.275 21.3086V23.5886H97.0989ZM108.844 16.56C108.844 15.92 108.701 15.3486 108.414 14.8457C108.139 14.3314 107.755 13.9314 107.262 13.6457C106.78 13.3486 106.236 13.2 105.628 13.2C104.998 13.2 104.43 13.3486 103.926 13.6457C103.433 13.9314 103.043 14.3314 102.756 14.8457C102.47 15.3486 102.327 15.92 102.327 16.56C102.327 17.2 102.47 17.7771 102.756 18.2914C103.043 18.7943 103.433 19.1886 103.926 19.4743C104.43 19.76 104.998 19.9029 105.628 19.9029C106.236 19.9029 106.78 19.76 107.262 19.4743C107.755 19.1886 108.139 18.7943 108.414 18.2914C108.701 17.7771 108.844 17.2 108.844 16.56Z" fill="black"/>
<path d="M118.872 23.5886H113.628V0H118.872V23.5886Z" fill="black"/>
<path d="M123.653 17.6571C123.687 18.16 123.848 18.6057 124.134 18.9943C124.421 19.3829 124.816 19.6914 125.321 19.92C125.837 20.1371 126.444 20.2457 127.144 20.2457C127.809 20.2457 128.405 20.1771 128.932 20.04C129.471 19.9029 129.935 19.7314 130.325 19.5257C130.726 19.32 131.036 19.1086 131.254 18.8914L133.283 22.1143C132.996 22.4229 132.589 22.7257 132.062 23.0229C131.546 23.3086 130.864 23.5429 130.015 23.7257C129.167 23.9086 128.095 24 126.8 24C125.241 24 123.854 23.7086 122.638 23.1257C121.423 22.5429 120.466 21.6857 119.767 20.5543C119.067 19.4229 118.718 18.04 118.718 16.4057C118.718 15.0343 119.016 13.8 119.612 12.7029C120.219 11.5943 121.096 10.72 122.243 10.08C123.389 9.42857 124.771 9.10286 126.387 9.10286C127.923 9.10286 129.253 9.38286 130.377 9.94286C131.512 10.5029 132.383 11.3371 132.99 12.4457C133.609 13.5429 133.919 14.9143 133.919 16.56C133.919 16.6514 133.913 16.8343 133.902 17.1086C133.902 17.3829 133.89 17.5657 133.867 17.6571H123.653ZM129.001 14.9314C128.989 14.5657 128.892 14.2057 128.709 13.8514C128.525 13.4857 128.25 13.1886 127.883 12.96C127.516 12.72 127.046 12.6 126.473 12.6C125.9 12.6 125.413 12.7143 125.011 12.9429C124.622 13.16 124.324 13.4457 124.117 13.8C123.911 14.1543 123.796 14.5314 123.773 14.9314H129.001Z" fill="black"/>
<path d="M143.727 24C142.879 24 142.145 23.6971 141.526 23.0914C140.919 22.4743 140.615 21.7429 140.615 20.8971C140.615 20.0286 140.919 19.2914 141.526 18.6857C142.145 18.0686 142.879 17.76 143.727 17.76C144.599 17.76 145.338 18.0686 145.946 18.6857C146.553 19.2914 146.857 20.0286 146.857 20.8971C146.857 21.7429 146.553 22.4743 145.946 23.0914C145.338 23.6971 144.599 24 143.727 24Z" fill="black"/>
</svg>
