<svg width="131" height="40" viewBox="0 0 131 40" fill="none" xmlns="http://www.w3.org/2000/svg">
<path d="M5.21259 38.9824H0C0 38.673 10.4763 12.8652 15.7144 0H20.2371L24.6065 10.9058L26.0842 14.5629L21.9639 16.3511L21.7702 15.8559L17.8608 6.26502L5.21259 38.9824Z" fill="black"/>
<path fill-rule="evenodd" clip-rule="evenodd" d="M24.1581 21.9703L26.7622 28.6282L17.2905 39.7463H22.5198L28.4076 32.835L31.1108 39.7463H36.2467L31.8305 28.8171L39.4287 19.8981V23.6671H37.0442V26.5214H39.4287V34.6403C39.4287 38.15 41.144 39.9049 44.5744 39.9049C45.4757 39.9049 46.2487 39.7945 46.8933 39.5739V39.7463H50.6584V34.7446C50.9878 35.8692 51.5292 36.8598 52.2826 37.7166C53.6422 39.2389 55.5247 40 57.9302 40C60.3566 40 62.2392 39.2177 63.5779 37.6531C64.251 36.8785 64.7575 35.9977 65.0974 35.0105V39.7463H68.8625V31.12C68.8625 29.6822 69.1972 28.5828 69.8665 27.8216C70.5359 27.0394 71.3621 26.6482 72.3452 26.6482C73.2028 26.6482 73.8826 26.9231 74.3847 27.4728C74.8867 28.0014 75.1377 28.7942 75.1377 29.8514V39.7463H78.9028V37.6253C79.0931 37.954 79.3277 38.2593 79.6065 38.5411C80.506 39.4291 81.7087 39.8731 83.2148 39.8731C85.2437 39.8731 86.6243 39.186 87.3564 37.8117V39.7463H94.7246V37.2726C95.8332 39.0697 97.4333 39.9683 99.5251 39.9683C101.617 39.9683 103.269 39.1649 104.482 37.558C105.154 36.684 105.642 35.71 105.949 34.6359V39.7463H109.714V34.5127C110.07 35.6993 110.674 36.7355 111.526 37.6214C112.99 39.1437 114.988 39.9049 117.519 39.9049C119.611 39.9049 121.211 39.556 122.319 38.8583V35.56C121.169 36.4057 119.757 36.8286 118.084 36.8286C116.787 36.8286 115.699 36.522 114.821 35.9088C113.963 35.2957 113.398 34.4077 113.126 33.2448H123.104C123.25 32.3145 123.323 31.5534 123.323 30.9614C123.323 28.5299 122.717 26.6799 121.504 25.4113C120.29 24.1428 118.648 23.5085 116.578 23.5085C114.507 23.5085 112.781 24.2379 111.401 25.6968C110.614 26.5275 110.052 27.5366 109.714 28.7238V17.3242H105.949V28.6499C105.628 27.5027 105.108 26.5183 104.388 25.6968C103.112 24.1956 101.481 23.4451 99.4937 23.4451C97.4229 23.4451 95.8332 24.3331 94.7246 26.1091V17.3242H90.9281V27.6952C90.3538 24.8195 88.2534 23.3816 84.6267 23.3816C82.3885 23.3816 80.6733 23.7516 79.481 24.4916V28.0119C80.9034 27.0605 82.4617 26.5848 84.156 26.5848C85.2646 26.5848 86.049 26.8174 86.5092 27.2825C86.9694 27.7476 87.1995 28.4242 87.1995 29.3122V30.2954H84.8777C82.7441 30.2954 81.1126 30.7288 79.983 31.5957C79.5335 31.9407 79.1734 32.3376 78.9028 32.7864V29.0585C78.9028 27.2825 78.4426 25.9082 77.5222 24.9356C76.6019 23.9631 75.3469 23.4768 73.7571 23.4768C71.3935 23.4768 69.7619 24.4599 68.8625 26.4262V23.6671H65.0974V28.3405C64.7628 27.3784 64.2668 26.5183 63.6093 25.7602C62.2705 24.1956 60.3775 23.4133 57.9302 23.4133C55.6293 23.4133 53.7781 24.2168 52.3767 25.8236C51.5741 26.7317 51.0013 27.782 50.6584 28.9744V23.6671H43.1938V19.7979L39.4287 19.8981L42.7834 15.9604H37.554L30.1481 24.6536L28.3396 20.1779L24.1581 21.9703ZM43.1938 26.5214H46.8933V36.3863C46.3652 36.6388 45.8014 36.7651 45.2019 36.7651C44.5744 36.7651 44.0828 36.596 43.7272 36.2577C43.3716 35.8983 43.1938 35.3803 43.1938 34.7037V26.5214ZM55.2005 35.4648C54.5521 34.4711 54.2279 33.2342 54.2279 31.7542C54.2279 30.2531 54.5416 29.0057 55.1691 28.0119C55.8176 27.0182 56.7379 26.5214 57.9302 26.5214C59.2271 26.5214 60.1788 27.0182 60.7854 28.0119C61.392 28.9845 61.6953 30.2425 61.6953 31.786C61.6953 33.2871 61.3816 34.524 60.754 35.4965C60.1265 36.4691 59.1957 36.9554 57.9616 36.9554C56.7693 36.9554 55.8489 36.4586 55.2005 35.4648ZM86.4778 36.3211C86.0177 36.8074 85.3692 37.0506 84.5325 37.0506C82.9847 37.0506 82.2107 36.374 82.2107 35.0208C82.2107 34.3865 82.4722 33.8685 82.9951 33.4668C83.5181 33.044 84.2711 32.8325 85.2542 32.8325H87.1995V34.3548C87.1995 35.1583 86.9589 35.8137 86.4778 36.3211ZM94.7246 31.564C94.7246 33.2342 95.1011 34.5134 95.8541 35.4014C96.6071 36.2683 97.5484 36.7017 98.6779 36.7017C99.7656 36.7017 100.676 36.2471 101.408 35.338C102.14 34.4288 102.506 33.2448 102.506 31.786C102.506 30.1791 102.129 28.9317 101.376 28.0436C100.644 27.1345 99.7342 26.6799 98.6465 26.6799C97.6216 26.6799 96.7117 27.0922 95.9168 27.9168C95.122 28.7202 94.7246 29.9359 94.7246 31.564ZM116.672 26.4896C115.772 26.4896 114.988 26.8279 114.319 27.5045C113.67 28.1599 113.252 29.1219 113.064 30.3905H119.747V29.9148C119.705 28.8788 119.422 28.0542 118.899 27.4411C118.397 26.8068 117.655 26.4896 116.672 26.4896Z" fill="black"/>
<path d="M50.7397 18.0825C50.7397 18.738 50.5201 19.2877 50.0808 19.7317C49.6415 20.1757 49.1081 20.3977 48.4806 20.3977C47.8531 20.3977 47.3197 20.1757 46.8805 19.7317C46.4412 19.2877 46.2216 18.738 46.2216 18.0825C46.2216 17.4482 46.4412 16.9091 46.8805 16.4651C47.3197 16.0211 47.8531 15.7991 48.4806 15.7991C49.1081 15.7991 49.6415 16.0211 50.0808 16.4651C50.5201 16.9091 50.7397 17.4482 50.7397 18.0825Z" fill="black"/>
<path d="M130.768 37.2821C130.768 37.9375 130.548 38.4873 130.109 38.9313C129.67 39.3753 129.137 39.5973 128.509 39.5973C127.882 39.5973 127.348 39.3753 126.909 38.9313C126.47 38.4873 126.25 37.9375 126.25 37.2821C126.25 36.6478 126.47 36.1087 126.909 35.6647C127.348 35.2207 127.882 34.9987 128.509 34.9987C129.137 34.9987 129.67 35.2207 130.109 35.6647C130.548 36.1087 130.768 36.6478 130.768 37.2821Z" fill="black"/>
</svg>
