<svg width="196" height="32" viewBox="0 0 196 32" fill="none" xmlns="http://www.w3.org/2000/svg">
<path d="M15.6522 31.4514V28.4114C15.5145 28.7162 15.1626 29.1581 14.5965 29.7371C14.0457 30.3162 13.3113 30.8419 12.3932 31.3143C11.4752 31.7714 10.4042 32 9.18018 32C7.34414 32 5.73761 31.5581 4.36058 30.6743C2.98356 29.7752 1.91254 28.579 1.14752 27.0857C0.382507 25.5771 0 23.9086 0 22.08C0 20.2514 0.382507 18.5905 1.14752 17.0971C1.91254 15.5886 2.98356 14.3848 4.36058 13.4857C5.73761 12.5867 7.34414 12.1371 9.18018 12.1371C10.3583 12.1371 11.3911 12.3276 12.2785 12.7086C13.1659 13.0743 13.885 13.5162 14.4358 14.0343C14.9866 14.5371 15.3691 15.0019 15.5834 15.4286V12.6857H22.5144V31.4514H15.6522ZM6.83923 22.08C6.83923 22.9333 7.03814 23.7029 7.43594 24.3886C7.83375 25.059 8.36161 25.5848 9.01952 25.9657C9.69274 26.3467 10.4348 26.5371 11.2457 26.5371C12.0872 26.5371 12.8293 26.3467 13.4719 25.9657C14.1145 25.5848 14.6194 25.059 14.9866 24.3886C15.3691 23.7029 15.5604 22.9333 15.5604 22.08C15.5604 21.2267 15.3691 20.4648 14.9866 19.7943C14.6194 19.1086 14.1145 18.5752 13.4719 18.1943C12.8293 17.7981 12.0872 17.6 11.2457 17.6C10.4348 17.6 9.69274 17.7981 9.01952 18.1943C8.36161 18.5752 7.83375 19.1086 7.43594 19.7943C7.03814 20.4648 6.83923 21.2267 6.83923 22.08Z" fill="white"/>
<path d="M37.4759 21.3714L45.4856 31.4514H37.7513L33.2989 25.6686L28.8466 31.4514H21.6401L29.6269 21.92L22.4434 12.6857H30.2465L33.735 17.5086L37.3841 12.6857H44.4529L37.4759 21.3714Z" fill="white"/>
<path d="M42.9586 12.6857H46.1716V4.98286H53.0797V12.6857H57.3026V18.4H53.0797V23.6343C53.0797 24.4114 53.1945 25.0438 53.424 25.5314C53.6535 26.0038 54.0742 26.24 54.6862 26.24C55.0993 26.24 55.4513 26.1486 55.742 25.9657C56.0327 25.7829 56.2086 25.661 56.2698 25.6L58.6567 30.5371C58.5496 30.6286 58.213 30.7962 57.6469 31.04C57.096 31.2838 56.3922 31.5048 55.5354 31.7029C54.6786 31.901 53.7223 32 52.6666 32C50.7847 32 49.2317 31.4743 48.0077 30.4229C46.7836 29.3562 46.1716 27.7181 46.1716 25.5086V18.4H42.9586V12.6857Z" fill="white"/>
<path d="M57.7975 31.4514V12.6857H64.7744V31.4514H57.7975ZM61.3777 8.82286C60.2761 8.82286 59.3428 8.4419 58.5778 7.68C57.8128 6.90286 57.4303 5.98095 57.4303 4.91429C57.4303 3.84762 57.8128 2.92571 58.5778 2.14857C59.3581 1.35619 60.2914 0.959998 61.3777 0.959998C62.0968 0.959998 62.7548 1.14286 63.3515 1.50857C63.9482 1.85905 64.4301 2.33143 64.7973 2.92571C65.1646 3.52 65.3482 4.18286 65.3482 4.91429C65.3482 5.98095 64.958 6.90286 64.1777 7.68C63.3974 8.4419 62.4641 8.82286 61.3777 8.82286Z" fill="white"/>
<path d="M75.5023 32C73.4368 32 71.6007 31.581 69.9942 30.7429C68.403 29.8895 67.1483 28.7238 66.2303 27.2457C65.3276 25.7524 64.8762 24.0457 64.8762 22.1257C64.8762 20.2057 65.3276 18.499 66.2303 17.0057C67.1483 15.4971 68.403 14.3086 69.9942 13.44C71.6007 12.5714 73.4368 12.1371 75.5023 12.1371C77.5678 12.1371 79.3886 12.5714 80.9645 13.44C82.5404 14.3086 83.7721 15.4971 84.6595 17.0057C85.5469 18.499 85.9906 20.2057 85.9906 22.1257C85.9906 24.0457 85.5469 25.7524 84.6595 27.2457C83.7721 28.7238 82.5404 29.8895 80.9645 30.7429C79.3886 31.581 77.5678 32 75.5023 32ZM75.5023 26.2857C76.2979 26.2857 76.9864 26.1105 77.5678 25.76C78.1492 25.4095 78.6006 24.9143 78.9219 24.2743C79.2432 23.6343 79.4039 22.9105 79.4039 22.1029C79.4039 21.28 79.2432 20.5486 78.9219 19.9086C78.6006 19.2686 78.1492 18.7657 77.5678 18.4C76.9864 18.0343 76.2979 17.8514 75.5023 17.8514C74.7067 17.8514 74.0105 18.0343 73.4138 18.4C72.8324 18.7657 72.3734 19.2686 72.0368 19.9086C71.7155 20.5486 71.5548 21.28 71.5548 22.1029C71.5548 22.9105 71.7155 23.6343 72.0368 24.2743C72.3734 24.9143 72.8324 25.4095 73.4138 25.76C74.0105 26.1105 74.7067 26.2857 75.5023 26.2857Z" fill="white"/>
<path d="M98.9164 12.1371C100.232 12.1371 101.517 12.4038 102.772 12.9371C104.027 13.4705 105.059 14.3162 105.87 15.4743C106.681 16.6171 107.087 18.1257 107.087 20V31.4514H100.087V21.1429C100.087 19.8019 99.7656 18.7962 99.123 18.1257C98.4804 17.44 97.6388 17.0971 96.5984 17.0971C95.9099 17.0971 95.2596 17.28 94.6476 17.6457C94.0509 17.9962 93.5613 18.499 93.1788 19.1543C92.8116 19.7943 92.628 20.5333 92.628 21.3714V31.4514H85.6511V12.6857H92.628V15.4514C92.8116 14.9486 93.1941 14.4457 93.7755 13.9429C94.3722 13.4248 95.1143 12.9981 96.0017 12.6629C96.9044 12.3124 97.876 12.1371 98.9164 12.1371Z" fill="white"/>
<path d="M122.088 31.4514V28.4114C121.951 28.7162 121.599 29.1581 121.033 29.7371C120.482 30.3162 119.748 30.8419 118.83 31.3143C117.911 31.7714 116.84 32 115.616 32C113.78 32 112.174 31.5581 110.797 30.6743C109.42 29.7752 108.349 28.579 107.584 27.0857C106.819 25.5771 106.436 23.9086 106.436 22.08C106.436 20.2514 106.819 18.5905 107.584 17.0971C108.349 15.5886 109.42 14.3848 110.797 13.4857C112.174 12.5867 113.78 12.1371 115.616 12.1371C116.795 12.1371 117.827 12.3276 118.715 12.7086C119.602 13.0743 120.321 13.5162 120.872 14.0343C121.423 14.5371 121.805 15.0019 122.02 15.4286V12.6857H128.951V31.4514H122.088ZM113.276 22.08C113.276 22.9333 113.474 23.7029 113.872 24.3886C114.27 25.059 114.798 25.5848 115.456 25.9657C116.129 26.3467 116.871 26.5371 117.682 26.5371C118.523 26.5371 119.266 26.3467 119.908 25.9657C120.551 25.5848 121.056 25.059 121.423 24.3886C121.805 23.7029 121.997 22.9333 121.997 22.08C121.997 21.2267 121.805 20.4648 121.423 19.7943C121.056 19.1086 120.551 18.5752 119.908 18.1943C119.266 17.7981 118.523 17.6 117.682 17.6C116.871 17.6 116.129 17.7981 115.456 18.1943C114.798 18.5752 114.27 19.1086 113.872 19.7943C113.474 20.4648 113.276 21.2267 113.276 22.08Z" fill="white"/>
<path d="M129.591 31.4514V0H136.568V15.4286C136.706 15.0019 137.058 14.5371 137.624 14.0343C138.205 13.5162 138.963 13.0743 139.896 12.7086C140.844 12.3276 141.915 12.1371 143.109 12.1371C144.945 12.1371 146.536 12.5867 147.883 13.4857C149.229 14.3848 150.269 15.5886 151.004 17.0971C151.738 18.5905 152.105 20.2514 152.105 22.08C152.105 23.9086 151.738 25.5771 151.004 27.0857C150.269 28.579 149.229 29.7752 147.883 30.6743C146.536 31.5581 144.945 32 143.109 32C142.099 32 141.143 31.8171 140.24 31.4514C139.353 31.101 138.58 30.6514 137.922 30.1029C137.28 29.539 136.805 28.9752 136.499 28.4114V31.4514H129.591ZM145.266 22.08C145.266 21.2267 145.075 20.4648 144.693 19.7943C144.325 19.1086 143.813 18.5752 143.155 18.1943C142.512 17.7981 141.785 17.6 140.975 17.6C140.133 17.6 139.376 17.7981 138.702 18.1943C138.045 18.5752 137.524 19.1086 137.142 19.7943C136.759 20.4648 136.568 21.2267 136.568 22.08C136.568 22.9333 136.759 23.7029 137.142 24.3886C137.524 25.059 138.045 25.5848 138.702 25.9657C139.376 26.3467 140.133 26.5371 140.975 26.5371C141.785 26.5371 142.512 26.3467 143.155 25.9657C143.813 25.5848 144.325 25.059 144.693 24.3886C145.075 23.7029 145.266 22.9333 145.266 22.08Z" fill="white"/>
<path d="M158.651 31.4514H151.651V0H158.651V31.4514Z" fill="white"/>
<path d="M165.031 23.5429C165.077 24.2133 165.291 24.8076 165.674 25.3257C166.056 25.8438 166.584 26.2552 167.257 26.56C167.946 26.8495 168.757 26.9943 169.69 26.9943C170.577 26.9943 171.373 26.9029 172.077 26.72C172.796 26.5371 173.415 26.3086 173.936 26.0343C174.471 25.76 174.884 25.4781 175.175 25.1886L177.883 29.4857C177.501 29.8971 176.957 30.301 176.254 30.6971C175.565 31.0781 174.655 31.3905 173.523 31.6343C172.39 31.8781 170.96 32 169.231 32C167.15 32 165.299 31.6114 163.677 30.8343C162.055 30.0571 160.777 28.9143 159.844 27.4057C158.911 25.8971 158.444 24.0533 158.444 21.8743C158.444 20.0457 158.842 18.4 159.638 16.9371C160.448 15.459 161.619 14.2933 163.149 13.44C164.679 12.5714 166.523 12.1371 168.68 12.1371C170.73 12.1371 172.505 12.5105 174.005 13.2571C175.519 14.0038 176.682 15.1162 177.493 16.5943C178.319 18.0571 178.732 19.8857 178.732 22.08C178.732 22.2019 178.725 22.4457 178.709 22.8114C178.709 23.1771 178.694 23.421 178.663 23.5429H165.031ZM172.168 19.9086C172.153 19.421 172.023 18.941 171.778 18.4686C171.534 17.981 171.166 17.5848 170.677 17.28C170.187 16.96 169.56 16.8 168.795 16.8C168.03 16.8 167.379 16.9524 166.844 17.2571C166.324 17.5467 165.926 17.9276 165.651 18.4C165.375 18.8724 165.222 19.3752 165.192 19.9086H172.168Z" fill="white"/>
<path d="M191.823 32C190.691 32 189.712 31.5962 188.885 30.7886C188.074 29.9657 187.669 28.9905 187.669 27.8629C187.669 26.7048 188.074 25.7219 188.885 24.9143C189.712 24.0914 190.691 23.68 191.823 23.68C192.986 23.68 193.973 24.0914 194.784 24.9143C195.595 25.7219 196 26.7048 196 27.8629C196 28.9905 195.595 29.9657 194.784 30.7886C193.973 31.5962 192.986 32 191.823 32Z" fill="white"/>
</svg>
