<svg width="157" height="48" viewBox="0 0 157 48" fill="none" xmlns="http://www.w3.org/2000/svg">
<path d="M6.25511 46.7788H0C0 46.4076 12.5715 15.4383 18.8573 0H24.2845L29.5278 13.0869L31.3011 17.4754L26.3567 19.6213L26.1243 19.0271L21.4329 7.51803L6.25511 46.7788Z" fill="white"/>
<path fill-rule="evenodd" clip-rule="evenodd" d="M28.9897 26.3643L32.1146 34.3538L20.7485 47.6955H27.0237L34.0891 39.402L37.3329 47.6955H43.4961L38.1966 34.5806L47.3145 23.8778V28.4005H44.453V31.8256H47.3145V41.5683C47.3145 45.78 49.3727 47.8858 53.4893 47.8858C54.5709 47.8858 55.4984 47.7535 56.2719 47.4887V47.6955H60.79V41.6936C61.1853 43.043 61.835 44.2318 62.7391 45.2599C64.3706 47.0866 66.6297 48 69.5163 48C72.4279 48 74.687 47.0613 76.2934 45.1838C77.1012 44.2542 77.709 43.1972 78.1169 42.0126V47.6955H82.635V37.3439C82.635 35.6187 83.0366 34.2994 83.8398 33.386C84.6431 32.4472 85.6345 31.9779 86.8143 31.9779C87.8434 31.9779 88.6592 32.3077 89.2616 32.9673C89.864 33.6016 90.1652 34.5531 90.1652 35.8216V47.6955H94.6833V45.1504C94.9117 45.5448 95.1932 45.9112 95.5278 46.2494C96.6072 47.315 98.0505 47.8478 99.8577 47.8478C102.292 47.8478 103.949 47.0232 104.828 45.374V47.6955H113.669V44.7271C115 46.8837 116.92 47.9619 119.43 47.9619C121.94 47.9619 123.923 46.9978 125.379 45.0696C126.184 44.0208 126.771 42.852 127.138 41.563V47.6955H131.656V41.4152C132.084 42.8392 132.809 44.0826 133.831 45.1457C135.588 46.9725 137.985 47.8858 141.023 47.8858C143.533 47.8858 145.453 47.4672 146.783 46.6299V42.672C145.403 43.6868 143.708 44.1943 141.7 44.1943C140.144 44.1943 138.839 43.8264 137.785 43.0906C136.756 42.3548 136.078 41.2892 135.752 39.8938H147.725C147.9 38.7774 147.988 37.8641 147.988 37.1537C147.988 34.2359 147.26 32.0159 145.804 30.4936C144.348 28.9713 142.378 28.2102 139.893 28.2102C137.408 28.2102 135.337 29.0855 133.681 30.8361C132.737 31.833 132.063 33.0439 131.656 34.4686V20.789H127.138V34.3798C126.754 33.0032 126.13 31.8219 125.266 30.8361C123.735 29.0348 121.777 28.1341 119.392 28.1341C116.907 28.1341 115 29.1997 113.669 31.3309V20.789H109.114V33.2343C108.425 29.7834 105.904 28.0579 101.552 28.0579C98.8662 28.0579 96.808 28.502 95.3772 29.39V33.6143C97.0841 32.4726 98.9541 31.9017 100.987 31.9017C102.318 31.9017 103.259 32.1808 103.811 32.739C104.363 33.2972 104.639 34.1091 104.639 35.1747V36.3545H101.853C99.2929 36.3545 97.3351 36.8746 95.9797 37.9148C95.4402 38.3288 95.0081 38.8051 94.6833 39.3437V34.8702C94.6833 32.739 94.1311 31.0899 93.0267 29.9228C91.9223 28.7557 90.4162 28.1721 88.5086 28.1721C85.6722 28.1721 83.7143 29.3519 82.635 31.7115V28.4005H78.1169V34.0086C77.7154 32.8541 77.1201 31.822 76.3311 30.9122C74.7247 29.0348 72.453 28.096 69.5163 28.096C66.7552 28.096 64.5338 29.0601 62.852 30.9884C61.8889 32.0781 61.2016 33.3384 60.79 34.7693V28.4005H51.8326V23.7575L47.3145 23.8778L51.34 19.1525H45.0648L36.1778 29.5844L34.0075 24.2134L28.9897 26.3643ZM51.8326 31.8256H56.2719V43.6636C55.6382 43.9666 54.9617 44.1182 54.2423 44.1182C53.4893 44.1182 52.8994 43.9152 52.4727 43.5092C52.046 43.0779 51.8326 42.4563 51.8326 41.6444V31.8256ZM66.2406 42.5578C65.4625 41.3653 65.0734 39.8811 65.0734 38.1051C65.0734 36.3037 65.4499 34.8068 66.203 33.6143C66.9811 32.4219 68.0855 31.8256 69.5163 31.8256C71.0725 31.8256 72.2146 32.4219 72.9425 33.6143C73.6704 34.7814 74.0344 36.291 74.0344 38.1431C74.0344 39.9445 73.6579 41.4288 72.9049 42.5959C72.1518 43.763 71.0349 44.3465 69.5539 44.3465C68.1232 44.3465 67.0187 43.7503 66.2406 42.5578ZM103.773 43.5853C103.221 44.1689 102.443 44.4607 101.439 44.4607C99.5816 44.4607 98.6529 43.6488 98.6529 42.025C98.6529 41.2639 98.9666 40.6422 99.5942 40.1602C100.222 39.6528 101.125 39.399 102.305 39.399H104.639V41.2258C104.639 42.1899 104.351 42.9764 103.773 43.5853ZM113.669 37.8767C113.669 39.8811 114.121 41.4161 115.025 42.4817C115.929 43.5219 117.058 44.042 118.413 44.042C119.719 44.042 120.811 43.4966 121.689 42.4056C122.568 41.3146 123.007 39.8938 123.007 38.1431C123.007 36.2149 122.555 34.718 121.651 33.6524C120.773 32.5614 119.681 32.0159 118.376 32.0159C117.146 32.0159 116.054 32.5107 115.1 33.5001C114.146 34.4643 113.669 35.9231 113.669 37.8767ZM140.006 31.7876C138.927 31.7876 137.985 32.1935 137.182 33.0054C136.404 33.7919 135.902 34.9463 135.676 36.4686H143.696V35.8978C143.646 34.6546 143.307 33.6651 142.679 32.9293C142.077 32.1681 141.186 31.7876 140.006 31.7876Z" fill="white"/>
<path d="M60.8876 21.699C60.8876 22.4856 60.6241 23.1452 60.097 23.678C59.5698 24.2108 58.9298 24.4772 58.1768 24.4772C57.4237 24.4772 56.7837 24.2108 56.2565 23.678C55.7294 23.1452 55.4659 22.4856 55.4659 21.699C55.4659 20.9379 55.7294 20.2909 56.2565 19.7581C56.7837 19.2253 57.4237 18.9589 58.1768 18.9589C58.9298 18.9589 59.5698 19.2253 60.097 19.7581C60.6241 20.2909 60.8876 20.9379 60.8876 21.699Z" fill="white"/>
<path d="M156.922 44.7387C156.922 45.5252 156.658 46.1848 156.131 46.7176C155.604 47.2505 154.964 47.5169 154.211 47.5169C153.458 47.5169 152.818 47.2505 152.291 46.7176C151.764 46.1848 151.5 45.5252 151.5 44.7387C151.5 43.9775 151.764 43.3305 152.291 42.7977C152.818 42.2649 153.458 41.9985 154.211 41.9985C154.964 41.9985 155.604 42.2649 156.131 42.7977C156.658 43.3305 156.922 43.9775 156.922 44.7387Z" fill="white"/>
</svg>
