<svg width="24" height="25" viewBox="0 0 24 25" fill="none" xmlns="http://www.w3.org/2000/svg">
<path d="M24 21.1667C24 23.008 22.508 24.5 20.6667 24.5H3.33333C1.49267 24.5 0 23.008 0 21.1667V3.83333C0 1.992 1.49267 0.5 3.33333 0.5H20.6667C22.508 0.5 24 1.992 24 3.83333V21.1667Z" fill="#0288D1"/>
<path d="M4.00049 9.16642H7.33382V20.4998H4.00049V9.16642ZM5.65715 7.83309H5.63849C4.64382 7.83309 4.00049 7.09176 4.00049 6.16576C4.00049 5.21976 4.66382 4.49976 5.67649 4.49976C6.69049 4.49976 7.31516 5.21976 7.33382 6.16576C7.33382 7.09109 6.69049 7.83309 5.65715 7.83309ZM20.0005 20.4998H16.6672V14.4338C16.6672 12.9684 15.8505 11.9684 14.5392 11.9684C13.5385 11.9684 12.9972 12.6431 12.7345 13.2951C12.6385 13.5284 12.6672 14.1738 12.6672 14.4998V20.4998H9.33382V9.16642H12.6672V10.9104C13.1478 10.1664 13.9005 9.16642 15.8258 9.16642C18.2112 9.16642 19.9998 10.6664 19.9998 14.0158L20.0005 20.4998Z" fill="white"/>
</svg>
