<svg width="33" height="32" viewBox="0 0 33 32" fill="none" xmlns="http://www.w3.org/2000/svg">
<path d="M13.8331 17.3333C14.4057 18.0988 15.1363 18.7322 15.9752 19.1906C16.8141 19.6489 17.7418 19.9215 18.6953 19.9898C19.6488 20.0581 20.6059 19.9205 21.5016 19.5864C22.3973 19.2523 23.2106 18.7294 23.8864 18.0533L27.8864 14.0533C29.1008 12.796 29.7728 11.112 29.7576 9.36399C29.7424 7.61601 29.0413 5.94392 27.8052 4.70787C26.5692 3.47182 24.8971 2.77069 23.1491 2.7555C21.4011 2.74031 19.7171 3.41227 18.4598 4.62666L16.1664 6.90666M19.1664 14.6667C18.5938 13.9012 17.8633 13.2678 17.0244 12.8094C16.1855 12.3511 15.2578 12.0785 14.3042 12.0102C13.3507 11.9419 12.3937 12.0795 11.498 12.4136C10.6023 12.7477 9.78896 13.2706 9.11311 13.9467L5.11311 17.9467C3.89872 19.204 3.22676 20.888 3.24195 22.636C3.25714 24.384 3.95827 26.0561 5.19432 27.2921C6.43038 28.5282 8.10246 29.2293 9.85044 29.2445C11.5984 29.2597 13.2824 28.5877 14.5398 27.3733L16.8198 25.0933" stroke="white" stroke-width="2" stroke-linecap="round" stroke-linejoin="round"/>
</svg>
