<svg width="33" height="32" viewBox="0 0 33 32" fill="none" xmlns="http://www.w3.org/2000/svg">
<path d="M16.4998 20C18.709 20 20.4998 18.2091 20.4998 16C20.4998 13.7908 18.709 12 16.4998 12C14.2907 12 12.4998 13.7908 12.4998 16C12.4998 18.2091 14.2907 20 16.4998 20Z" stroke="white" stroke-width="2" stroke-linecap="round" stroke-linejoin="round"/>
<path d="M25.4695 19.6363C25.3082 20.0019 25.2601 20.4075 25.3313 20.8007C25.4026 21.1939 25.5901 21.5567 25.8695 21.8424L25.9423 21.9151C26.1677 22.1403 26.3465 22.4076 26.4685 22.7019C26.5905 22.9962 26.6533 23.3117 26.6533 23.6303C26.6533 23.9488 26.5905 24.2643 26.4685 24.5586C26.3465 24.8529 26.1677 25.1203 25.9423 25.3454C25.7171 25.5708 25.4498 25.7496 25.1555 25.8716C24.8612 25.9936 24.5457 26.0564 24.2271 26.0564C23.9085 26.0564 23.5931 25.9936 23.2988 25.8716C23.0045 25.7496 22.7371 25.5708 22.512 25.3454L22.4392 25.2727C22.1536 24.9932 21.7907 24.8058 21.3975 24.7345C21.0043 24.6632 20.5988 24.7113 20.2332 24.8727C19.8747 25.0263 19.5689 25.2815 19.3535 25.6067C19.1382 25.9319 19.0226 26.3129 19.021 26.703V26.9091C19.021 27.552 18.7656 28.1686 18.311 28.6232C17.8564 29.0779 17.2398 29.3333 16.5968 29.3333C15.9539 29.3333 15.3372 29.0779 14.8826 28.6232C14.428 28.1686 14.1726 27.552 14.1726 26.9091V26.8C14.1632 26.3988 14.0333 26.0097 13.7999 25.6832C13.5664 25.3568 13.2401 25.1082 12.8635 24.9697C12.4979 24.8083 12.0923 24.7602 11.6991 24.8315C11.3059 24.9028 10.9431 25.0902 10.6574 25.3697L10.5847 25.4424C10.3595 25.6678 10.0922 25.8466 9.79787 25.9686C9.50358 26.0906 9.18812 26.1534 8.86953 26.1534C8.55095 26.1534 8.23549 26.0906 7.94119 25.9686C7.6469 25.8466 7.37953 25.6678 7.15438 25.4424C6.92899 25.2172 6.75018 24.9499 6.62818 24.6556C6.50618 24.3613 6.44338 24.0458 6.44338 23.7272C6.44338 23.4087 6.50618 23.0932 6.62818 22.7989C6.75018 22.5046 6.92899 22.2372 7.15438 22.0121L7.22711 21.9394C7.50655 21.6537 7.694 21.2908 7.7653 20.8976C7.83659 20.5044 7.78846 20.0989 7.62711 19.7333C7.47346 19.3748 7.21833 19.069 6.89313 18.8537C6.56793 18.6383 6.18685 18.5227 5.79681 18.5212H5.59075C4.9478 18.5212 4.33118 18.2658 3.87655 17.8111C3.42191 17.3565 3.1665 16.7399 3.1665 16.0969C3.1665 15.454 3.42191 14.8374 3.87655 14.3827C4.33118 13.9281 4.9478 13.6727 5.59075 13.6727H5.69984C6.10104 13.6633 6.49015 13.5334 6.81656 13.3C7.14298 13.0665 7.39161 12.7402 7.53014 12.3636C7.69149 11.998 7.73962 11.5925 7.66833 11.1992C7.59703 10.806 7.40958 10.4432 7.13014 10.1575L7.05741 10.0848C6.83202 9.85966 6.65321 9.5923 6.53121 9.298C6.40921 9.0037 6.34642 8.68824 6.34642 8.36966C6.34642 8.05107 6.40921 7.73561 6.53121 7.44132C6.65321 7.14702 6.83202 6.87965 7.05741 6.6545C7.28256 6.42911 7.54993 6.2503 7.84422 6.1283C8.13852 6.0063 8.45398 5.94351 8.77256 5.94351C9.09115 5.94351 9.40661 6.0063 9.70091 6.1283C9.9952 6.2503 10.2626 6.42911 10.4877 6.6545L10.5604 6.72723C10.8461 7.00667 11.2089 7.19412 11.6022 7.26542C11.9954 7.33672 12.4009 7.28858 12.7665 7.12723H12.8635C13.222 6.97358 13.5277 6.71845 13.7431 6.39325C13.9585 6.06805 14.074 5.68697 14.0756 5.29693V5.09087C14.0756 4.44792 14.331 3.8313 14.7856 3.37667C15.2403 2.92204 15.8569 2.66663 16.4998 2.66663C17.1428 2.66663 17.7594 2.92204 18.214 3.37667C18.6687 3.8313 18.9241 4.44792 18.9241 5.09087V5.19996C18.9256 5.59 19.0412 5.97108 19.2566 6.29628C19.4719 6.62148 19.7777 6.87661 20.1362 7.03026C20.5018 7.19161 20.9073 7.23975 21.3006 7.16845C21.6938 7.09715 22.0566 6.9097 22.3423 6.63026L22.415 6.55754C22.6401 6.33214 22.9075 6.15333 23.2018 6.03133C23.4961 5.90933 23.8116 5.84654 24.1301 5.84654C24.4487 5.84654 24.7642 5.90933 25.0585 6.03133C25.3528 6.15333 25.6201 6.33214 25.8453 6.55754C26.0707 6.78268 26.2495 7.05005 26.3715 7.34435C26.4935 7.63865 26.5563 7.9541 26.5563 8.27269C26.5563 8.59127 26.4935 8.90673 26.3715 9.20103C26.2495 9.49533 26.0707 9.76269 25.8453 9.98784L25.7726 10.0606C25.4931 10.3462 25.3057 10.7091 25.2344 11.1023C25.1631 11.4955 25.2112 11.901 25.3726 12.2666V12.3636C25.5262 12.7221 25.7813 13.0279 26.1065 13.2432C26.4317 13.4586 26.8128 13.5742 27.2029 13.5757H27.4089C28.0519 13.5757 28.6685 13.8311 29.1231 14.2858C29.5778 14.7404 29.8332 15.357 29.8332 16C29.8332 16.6429 29.5778 17.2595 29.1231 17.7142C28.6685 18.1688 28.0519 18.4242 27.4089 18.4242H27.2998C26.9098 18.4258 26.5287 18.5413 26.2035 18.7567C25.8783 18.9721 25.6232 19.2778 25.4695 19.6363Z" stroke="white" stroke-width="2" stroke-linecap="round" stroke-linejoin="round"/>
</svg>
